{
  "asset": {
    "version": "2.0",
    "generator": "FlowchartAR"
  },
  "scene": 0,
  "scenes": [
    {
      "nodes": [0]
    }
  ],
  "nodes": [
    {
      "mesh": 0
    }
  ],
  "meshes": [
    {
      "primitives": [
        {
          "attributes": {
            "POSITION": 0,
            "NORMAL": 1
          },
          "indices": 2,
          "material": 0
        }
      ]
    }
  ],
  "materials": [
    {
      "pbrMetallicRoughness": {
        "baseColorFactor": [0.2, 0.6, 0.9, 1.0],
        "metallicFactor": 0.1,
        "roughnessFactor": 0.4
      }
    }
  ],
  "accessors": [
    {
      "bufferView": 0,
      "componentType": 5126,
      "count": 24,
      "type": "VEC3",
      "max": [0.5, 0.5, 0.5],
      "min": [-0.5, -0.5, -0.5]
    },
    {
      "bufferView": 1,
      "componentType": 5126,
      "count": 24,
      "type": "VEC3"
    },
    {
      "bufferView": 2,
      "componentType": 5123,
      "count": 36,
      "type": "SCALAR"
    }
  ],
  "bufferViews": [
    {
      "buffer": 0,
      "byteOffset": 0,
      "byteLength": 288
    },
    {
      "buffer": 0,
      "byteOffset": 288,
      "byteLength": 288
    },
    {
      "buffer": 0,
      "byteOffset": 576,
      "byteLength": 72
    }
  ],
  "buffers": [
    {
      "uri": "cube.bin",
      "byteLength": 648
    }
  ]
}
